<svg viewBox="0 0 40 40" xmlns="http://www.w3.org/2000/svg">
  <g fill="none">
    <path d="M40 20c0 11.046-8.954 20-20 20S0 31.046 0 20 8.954 0 20 0s20 8.954 20 20" fill="#112840"/>
    <path d="M19.6563 7.575c-.4876.19-.6126.8838-.2326 1.235.3588.3662 1.0588.2375 1.2438-.2412.3187-.5888-.4125-1.3025-1.0125-.995l.0012.0012zm-6.4438.6825c-.5063.1325-.5625.9175-.0713 1.105.3713.2.8975-.1112.8588-.5337.0375-.3913-.4238-.7188-.7875-.5713zM26.41 9.3737c.3875.0976.675-.2125.765-.55-.0625-.3962-.4525-.7775-.8763-.575-.5475.1776-.4575 1.0576.1113 1.125zM14.6788 10.955c-.57.2875-.6488 1.1425-.1313 1.515.535.475 1.4825.0675 1.5137-.6338.0938-.6962-.775-1.26-1.3824-.8812zm9.2874.4025c-.3387.67.345 1.4375 1.0663 1.305.5438-.1775.92-.8237.6137-1.345-.3087-.67-1.4087-.6488-1.68.04zM18.88 12.6238c-.0325.4825.3188.8775.735 1.0787.2725.0163.5688.0675.8188-.07.5475-.2375.8175-.9525.5137-1.4725-.1625-.375-.575-.535-.9537-.61-.5725.0412-1.12.4813-1.1138 1.0738zm-9.5825.8625c-.485.2187-.5525.9575-.125 1.265.4025.3275 1.105.1187 1.22-.395.2113-.5938-.5387-1.2075-1.095-.8713v.0013zm20.5775-.0025c-.485.2925-.4312 1.0725.0837 1.3.4675.275 1.1413-.1275 1.1088-.6613.0563-.585-.7212-.9987-1.1925-.6375v-.0012zm-8.3 1.0637c-.97.29-1.545 1.4475-1.15 2.3725.3475 1.0337 1.7212 1.5137 2.6625.9475.9063-.4787 1.2175-1.75.6325-2.5838-.4425-.6824-1.3675-1.0124-2.145-.7362zm-4.5663.0913c-.9187.4037-1.3412 1.595-.865 2.4725.425.9062 1.6626 1.2787 2.54.7875.8763-.4363 1.255-1.6126.765-2.4576-.4162-.8674-1.5774-1.2037-2.44-.8025zm-4.5712 1.5362c-.1262.6425.4562 1.295 1.1225 1.2375.605.0038 1.0462-.545 1.0837-1.1062a1.2225 1.2225 0 00-1.0875-1.0713c-.5287.0375-1.0525.3938-1.1187.94zm13.5025-.82c-.7338.34-.7875 1.465-.0813 1.865.68.48 1.73-.0962 1.6838-.915.03-.7725-.9187-1.3412-1.6025-.95zm-10.7875 2.8838c-1.085.2575-1.72 1.57-1.1975 2.5487.4563 1.0675 2.0325 1.3825 2.8875.6.6675-.5337.8425-1.545.4138-2.2725-.3925-.7225-1.3063-1.0925-2.105-.8762h.0012zm8.6588-.0038c-1.0925.2938-1.67 1.6563-1.0963 2.62.475.9325 1.8087 1.245 2.67.65.8212-.5137 1.085-1.7025.5325-2.4987-.4175-.6963-1.33-.99-2.1062-.7713zm-13.8.9075c-.6626.185-.8588 1.13-.3276 1.5538.4538.4525 1.3326.225 1.5038-.3875.2787-.6738-.4863-1.4225-1.1762-1.1663zm18.7112.9775c.115.2625.2538.5375.525.6725.58.3138 1.3987-.14 1.355-.8087.0375-.5075-.4225-.8825-.895-.9563-.5724.0323-1.012.5198-.985 1.0925zm-22.105-.645c-.3437.1538-.4925.6125-.2425.9113.2825.4287 1.0537.2312 1.075-.2825.0962-.4538-.4175-.8075-.8325-.6288zm26.1863-.0112c-.4876.2562-.2963 1.14.2937 1.0875.42.0625.78-.4413.5837-.8088-.1162-.3362-.585-.4825-.8775-.2787zM17.4075 21.93c-.8175.175-1.4475.9388-1.445 1.7613-.0288.8587.65 1.6787 1.515 1.8162 1.1188.2575 2.275-.7337 2.2038-1.8525-.0063-1.1075-1.1813-2.0037-2.275-1.725h.0012zm4.3275-.0012c-.6575.16-1.215.6937-1.36 1.35-.2875.9837.4725 2.0975 1.5038 2.2287 1.095.2175 2.2162-.7412 2.1575-1.8387.0175-1.1325-1.1926-2.045-2.3-1.74h-.0013zm-8.345.6812c-.8288.0825-1.2663 1.1788-.6813 1.7775.5.625 1.63.4175 1.8575-.3475.3113-.7162-.4087-1.5587-1.175-1.43H13.39zm12.6925.0338c-.8262.2587-.965 1.5-.2063 1.92.6688.47 1.7063-.085 1.6788-.8888.0525-.7312-.7875-1.3125-1.4725-1.0312zm3.5475 3.5c.1813.4975.9375.6162 1.2713.2.2462-.2238.185-.5713.1487-.8625-.1762-.18-.37-.3938-.6463-.3888-.555-.0912-1.0412.56-.7737 1.0513zm-20.335-.915c-.4937.2475-.5112 1.0212-.0337 1.2925.445.3 1.12-.0013 1.1812-.5288.1175-.5962-.6287-1.1025-1.1475-.7625v-.0012zm10.2413 1.1037c-.8175.2588-.94 1.4913-.2038 1.91.6638.4875 1.7338-.075 1.6825-.8875.065-.735-.8-1.3162-1.4787-1.0225zm-4.7425 1.0888c-.4075.15-.5738.5925-.5813.9887.14.3638.4225.7475.8563.7563.525.0775 1.0425-.3675 1.025-.89.0524-.6375-.7226-1.1538-1.3-.855zm9.6075.01c-.58.2912-.645 1.1712-.11 1.5375.5537.4675 1.5087.0125 1.4937-.7.0563-.68-.7887-1.2-1.3837-.8375zm1.6712 4.0625c.2713.4575 1.0625.295 1.1138-.2375.0725-.395-.2925-.65-.6375-.7188-.43.09-.7413.5638-.4763.9575v-.0012zm-13.2637-.3413c.0375.4488.535.8375.9625.5538.4762-.25.315-1.0563-.2288-1.0938-.3737-.0812-.6287.2288-.7337.54zm6.4.3588c-.1913.4662.2662 1.03.7725.9712.2725.0063.4837-.185.6475-.375.0312-.1287.0637-.2587.1-.3875-.0675-.2475-.145-.5375-.41-.65-.4-.245-1.0063-.02-1.1113.4413h.0013z" fill="#FFF"/>
    <circle stroke-opacity=".02" stroke="#000" cx="20" cy="20" r="19.5"/>
    <circle stroke-opacity=".02" stroke="#000" cx="20" cy="20" r="19.5"/>
  </g>
</svg>
