<svg width="40" height="40" viewBox="0 0 40 40" fill="none" xmlns="http://www.w3.org/2000/svg">
<g clip-path="url(#clip0)">
<path fill-rule="evenodd" clip-rule="evenodd" d="M40 20C40 23.9556 38.827 27.8224 36.6294 31.1114C34.4318 34.4004 31.3082 36.9638 27.6537 38.4776C23.9992 39.9913 19.9778 40.3874 16.0982 39.6157C12.2186 38.844 8.65492 36.9392 5.85787 34.1421C3.06082 31.3451 1.15601 27.7814 0.384303 23.9018C-0.387401 20.0222 0.00866568 16.0009 1.52242 12.3463C3.03617 8.69181 5.59962 5.56824 8.8886 3.37061C12.1776 1.17298 16.0444 0 20 0C25.3043 0 30.3914 2.10714 34.1421 5.85786C37.8929 9.60859 40 14.6957 40 20Z" fill="#F3F3F3"/>
<path d="M26.69 15.55C26.439 15.417 26.1592 15.3474 25.875 15.3474C25.5909 15.3474 25.3111 15.417 25.06 15.55L21.26 17.79L18.68 19.22L14.94 21.46C14.689 21.5931 14.4092 21.6627 14.125 21.6627C13.8409 21.6627 13.5611 21.5931 13.31 21.46L10.39 19.69C10.1433 19.5441 9.93884 19.3364 9.79681 19.0874C9.65477 18.8384 9.58006 18.5567 9.58003 18.27V14.87C9.58201 14.5838 9.65755 14.3028 9.79939 14.0542C9.94124 13.8055 10.1446 13.5975 10.39 13.45L13.31 11.75C13.5611 11.617 13.8409 11.5474 14.125 11.5474C14.4092 11.5474 14.689 11.617 14.94 11.75L17.86 13.52C18.1093 13.664 18.3163 13.871 18.4602 14.1202C18.6042 14.3695 18.68 14.6522 18.68 14.94V17.18L21.26 15.69V13.38C21.2494 13.0999 21.1687 12.8268 21.0255 12.5858C20.8823 12.3447 20.681 12.1434 20.44 12L15 8.77005C14.7504 8.63262 14.47 8.56055 14.185 8.56055C13.9 8.56055 13.6197 8.63262 13.37 8.77005L7.81003 12C7.55929 12.1311 7.35041 12.3299 7.2072 12.5739C7.06399 12.8179 6.99221 13.0972 7.00003 13.38V19.76C7.00126 20.0478 7.0764 20.3305 7.21823 20.5809C7.36006 20.8313 7.56384 21.041 7.81003 21.19L13.31 24.38C13.5611 24.5131 13.8409 24.5827 14.125 24.5827C14.4092 24.5827 14.689 24.5131 14.94 24.38L18.68 22.21L21.26 20.71L25 18.54C25.2511 18.407 25.5309 18.3374 25.815 18.3374C26.0992 18.3374 26.379 18.407 26.63 18.54L29.55 20.24C29.7968 20.386 30.0012 20.5937 30.1433 20.8427C30.2853 21.0917 30.36 21.3734 30.36 21.66V25.06C30.358 25.3463 30.2825 25.6273 30.1407 25.8759C29.9988 26.1246 29.7954 26.3326 29.55 26.48L26.7 28.18C26.449 28.3131 26.1692 28.3827 25.885 28.3827C25.6009 28.3827 25.3211 28.3131 25.07 28.18L22.15 26.48C21.9008 26.3361 21.6938 26.1291 21.5498 25.8799C21.4059 25.6306 21.3301 25.3479 21.33 25.06V22.89L18.75 24.38V26.62C18.7596 26.8993 18.8387 27.1717 18.9802 27.4127C19.1216 27.6536 19.3209 27.8555 19.56 28L25.06 31.19C25.3094 31.3284 25.5899 31.401 25.875 31.401C26.1602 31.401 26.4407 31.3284 26.69 31.19L32.19 28C32.431 27.8576 32.6318 27.6562 32.7735 27.4148C32.9152 27.1734 32.9932 26.8999 33 26.62V20.17C32.9978 19.8825 32.9223 19.6002 32.7806 19.35C32.6388 19.0997 32.4356 18.8898 32.19 18.74L26.69 15.55Z" fill="#8247E5"/>
<path opacity="0.02" d="M20 1C24.3957 1.0023 28.6545 2.52861 32.051 5.31888C35.4474 8.10914 37.7714 11.9907 38.6268 16.3023C39.4823 20.6139 38.8163 25.0887 36.7424 28.9643C34.6685 32.84 31.315 35.8766 27.2532 37.557C23.1915 39.2373 18.6727 39.4573 14.4669 38.1795C10.2611 36.9017 6.62844 34.2052 4.18786 30.5494C1.74727 26.8936 0.649757 22.5046 1.08231 18.1303C1.51485 13.756 3.4507 9.66703 6.56003 6.56C8.32534 4.79599 10.4209 3.39704 12.7269 2.44304C15.033 1.48904 17.5044 0.998695 20 1ZM20 4.56507e-07C15.3729 -0.000987762 10.8885 1.60248 7.31107 4.53718C3.73363 7.47188 1.28444 11.5562 0.380826 16.0943C-0.522786 20.6324 0.17509 25.3434 2.35554 29.4246C4.53599 33.5058 8.06411 36.7047 12.3387 38.4762C16.6133 40.2477 21.37 40.4822 25.7981 39.1398C30.2263 37.7974 34.0519 34.9611 36.6233 31.1142C39.1947 27.2673 40.3526 22.6478 39.8998 18.0428C39.447 13.4379 37.4114 9.13239 34.14 5.86C30.3902 2.10901 25.3039 0.0011332 20 4.56507e-07Z" fill="black"/>
</g>
<defs>
<clipPath id="clip0">
<rect width="40" height="40" fill="white"/>
</clipPath>
</defs>
</svg>
