<svg width="40" height="40" viewBox="0 0 40 40" fill="none" xmlns="http://www.w3.org/2000/svg">
<g clip-path="url(#clip0_1367_639)">
<path d="M20 40C31.0457 40 40 31.0457 40 20C40 8.9543 31.0457 0 20 0C8.9543 0 0 8.9543 0 20C0 31.0457 8.9543 40 20 40Z" fill="#1E2A4E"/>
<path d="M20 40C31.0457 40 40 31.0457 40 20C40 8.9543 31.0457 0 20 0C8.9543 0 0 8.9543 0 20C0 31.0457 8.9543 40 20 40Z" fill="#1E2A4E"/>
<path d="M20 39.5833C30.8156 39.5833 39.5833 30.8155 39.5833 20C39.5833 9.18438 30.8156 0.416626 20 0.416626C9.18442 0.416626 0.416664 9.18438 0.416664 20C0.416664 30.8155 9.18442 39.5833 20 39.5833Z" stroke="black" stroke-opacity="0.02"/>
<path d="M27.5924 20.6719C27.5793 20.741 27.3743 20.9481 27.1692 21.0991C26.567 21.5348 25.4893 21.9404 24.394 22.1345C23.7701 22.2467 23.1461 22.2639 22.9585 22.1733C22.8363 22.1129 22.8188 22.0655 22.8625 21.9102C22.9541 21.5866 23.2508 21.2328 23.7133 20.9006C23.949 20.7323 24.9046 20.1585 25.3496 19.9169C26.0827 19.52 26.6761 19.2827 27.0775 19.2266C27.2041 19.2094 27.3568 19.2051 27.4048 19.2266C27.4833 19.2568 27.5706 19.4855 27.6055 19.7616C27.623 19.9083 27.6142 20.5555 27.5924 20.6719ZM17.3122 22.1001C17.286 22.1519 17.1551 22.208 17.0068 22.2295C16.8584 22.2511 16.4046 22.2382 16.1472 22.208C15.2221 22.0872 14.2404 21.8067 13.5248 21.4616C13.1233 21.2674 12.8354 21.0733 12.6216 20.8619L12.4994 20.7368L12.4863 20.5728C12.4645 20.2881 12.4688 19.8394 12.5037 19.6798C12.5256 19.546 12.5736 19.4166 12.639 19.3001C12.6739 19.257 12.6739 19.257 12.831 19.257C13.023 19.257 13.1844 19.2872 13.4462 19.3691C13.9829 19.5331 14.7814 19.93 15.7545 20.5081C16.5574 20.9827 16.8584 21.2157 17.0897 21.5349C17.2468 21.7334 17.3515 22.0138 17.3122 22.1001ZM23.4908 28.1056C23.4908 28.1185 23.4384 28.3256 23.373 28.5715C23.3075 28.8175 23.2552 29.0159 23.2552 29.0246C23.2072 29.0289 23.1635 29.0332 23.1155 29.0289H22.9759L22.7839 29.4776C22.6792 29.7235 22.5832 29.9521 22.5701 29.9866L22.5439 30.0471L22.4523 29.9004L22.3607 29.7537V28.5586L22.3258 28.5672C22.2516 28.5845 21.7236 28.6535 21.4924 28.6751C20.5368 28.77 19.5768 28.7484 18.6256 28.6147C18.4729 28.5931 18.342 28.5759 18.3376 28.5802C18.3333 28.5845 18.3376 28.8606 18.3464 29.2014L18.3594 29.8141L18.2853 29.9262C18.246 29.9867 18.2067 30.0384 18.2067 30.0427C18.1936 30.0557 18.15 29.9866 18.0496 29.7882C17.9406 29.5811 17.862 29.3611 17.8053 29.1324L17.7747 29.0073L17.6395 29.0159L17.5042 29.0289L17.4693 28.8692C17.4519 28.783 17.43 28.6492 17.4213 28.5759L17.4082 28.4378L17.2948 28.3386C17.2293 28.2825 17.1639 28.2264 17.1508 28.2178C17.129 28.2005 17.1202 28.1703 17.1202 28.1444V28.0927L17.6657 28.097L18.2111 28.1013L18.2285 28.1574L18.246 28.2135L18.4336 28.2221C18.5383 28.2264 18.87 28.235 19.1667 28.2437L19.7121 28.2566L19.8517 28.0409L19.9957 27.8252H20.179L20.1746 27.3765L20.1703 26.9278L19.9303 26.8242C19.1579 26.4877 18.7041 26.1038 18.534 25.6378C18.4991 25.5429 18.4991 25.5084 18.4903 25.0769C18.486 24.6498 18.486 24.611 18.5165 24.5161C18.5776 24.3004 18.7478 24.1321 18.966 24.076C19.0401 24.0544 19.2365 24.0544 20.2662 24.0544L21.4793 24.0588L21.6145 24.1235C21.776 24.2011 21.8502 24.2572 21.9418 24.378C22.0465 24.5161 22.0771 24.6239 22.0771 24.8871C22.0771 25.2625 22.0509 25.586 22.0116 25.7155C21.9549 25.8923 21.8676 26.0606 21.7585 26.2116C21.5404 26.4877 21.1433 26.7638 20.7811 26.889L20.6764 26.9278L20.6808 27.3808L20.6851 27.8338L20.7811 27.8424L20.8771 27.8511L21.008 28.0452L21.1346 28.2393H21.7193C22.0422 28.2393 22.3258 28.2437 22.352 28.248C22.3956 28.2566 22.4043 28.2523 22.448 28.1789L22.5003 28.1013H23.0021C23.3774 28.084 23.4908 28.0927 23.4908 28.1056Z" fill="black"/>
<path d="M21.1869 29.3438C21.104 29.3911 21.0473 29.4128 21.0342 29.4042C21.0211 29.3999 20.96 29.3481 20.8946 29.3006L20.7768 29.2057L20.6546 29.3351C20.3884 29.6199 20.3797 29.6328 20.3012 29.6371C20.179 29.6501 20.1528 29.6285 20.0044 29.4085C19.9259 29.2963 19.8648 29.2014 19.8648 29.2014C19.8648 29.2014 19.8081 29.1927 19.7426 29.1884L19.6205 29.1755L19.5637 29.292L19.507 29.4085L19.4067 29.3783C19.3281 29.3524 19.2496 29.3222 19.1754 29.2877L19.0445 29.2229V28.9771L20.2052 28.9813L21.3658 28.9857L21.3702 29.1021C21.3746 29.2401 21.3789 29.2359 21.1869 29.3438Z" fill="black"/>
<path d="M32.0955 24.0804C32.0911 24.0631 32.0911 24.0329 32.0867 23.9854C31.0395 23.8733 28.0506 23.8042 25.2754 26.0693C25.2754 26.0693 24.3809 22.0138 20.1921 22.0138C16.0032 22.0138 14.4498 26.0693 14.4498 26.0693C12.1023 23.5713 8.96066 23.7525 7.82617 23.9164C7.82617 23.9423 7.8218 23.9725 7.8218 23.9984C7.7869 24.624 7.80435 24.9217 7.90907 25.3143C8.23633 26.5438 9.24428 27.8985 10.8238 29.2274C13.4113 31.4018 16.9195 32.9722 19.5768 33.1534C22.3476 33.3389 26.4361 31.7383 29.1589 29.3999C29.5865 29.0246 29.9879 28.6277 30.3632 28.2049C30.6337 27.8942 31.0352 27.3592 31.0046 27.3592C30.9959 27.3592 31.0046 27.3506 31.0221 27.342C31.0352 27.3334 31.0482 27.3204 31.0395 27.3118C31.0351 27.3075 31.0439 27.2945 31.057 27.2902C31.0701 27.2859 31.0788 27.2773 31.0744 27.2686C31.0701 27.26 31.0744 27.2514 31.0919 27.2471C31.105 27.2428 31.1093 27.2298 31.105 27.2212C31.1006 27.2126 31.105 27.2039 31.1137 27.2039C31.1224 27.2039 31.1311 27.191 31.1311 27.1824C31.1311 27.1737 31.1399 27.1608 31.1486 27.1608C31.1573 27.1608 31.1661 27.1522 31.1661 27.1435C31.1791 27.109 31.201 27.0745 31.2228 27.0443C31.2882 26.9451 31.55 26.4834 31.5849 26.4058C31.8337 25.8492 31.9907 25.3531 32.0649 24.8569C32.0911 24.6196 32.1129 24.1839 32.0955 24.0804ZM21.1869 29.3438C21.104 29.3913 21.0473 29.4129 21.0342 29.4042C21.0211 29.3999 20.96 29.3482 20.8946 29.3007L20.7768 29.2058L20.6546 29.3352C20.3884 29.62 20.3797 29.6329 20.3012 29.6372C20.179 29.6502 20.1528 29.6286 20.0044 29.4086C19.9259 29.2964 19.8648 29.2015 19.8648 29.2015C19.8648 29.2015 19.8081 29.1928 19.7426 29.1885L19.6205 29.1756L19.5637 29.2921L19.507 29.4086L19.4067 29.3784C19.3281 29.3525 19.2496 29.3223 19.1754 29.2878L19.0445 29.223V28.9771L20.2052 28.9814L21.3658 28.9857L21.3702 29.1022C21.3746 29.2403 21.3789 29.236 21.1869 29.3438ZM23.3686 28.5673C23.3032 28.8132 23.2508 29.0116 23.2508 29.0203C23.2028 29.0246 23.1592 29.0289 23.1112 29.0246H22.9716L22.7839 29.4776C22.6792 29.7235 22.5832 29.9522 22.5701 29.9867L22.544 30.0471L22.4523 29.9004L22.3607 29.7537V28.5586L22.3258 28.5673C22.2516 28.5845 21.7236 28.6535 21.4924 28.6751C20.5368 28.77 19.5768 28.7485 18.6256 28.6147C18.4729 28.5931 18.342 28.5759 18.3376 28.5802C18.3333 28.5845 18.3376 28.8606 18.3464 29.2015L18.3594 29.8141L18.2853 29.9263C18.246 29.9867 18.2067 30.0384 18.2067 30.0428C18.1936 30.0557 18.15 29.9867 18.0496 29.7882C17.9406 29.5811 17.862 29.3611 17.8053 29.1324L17.7747 29.0073L17.6395 29.0159L17.5042 29.0289L17.4693 28.8693C17.4519 28.783 17.43 28.6492 17.4213 28.5759L17.4082 28.4378L17.2948 28.3386C17.2293 28.2825 17.1639 28.2264 17.1508 28.2178C17.129 28.2005 17.1202 28.1703 17.1202 28.1445V28.0927L17.6657 28.097L18.2111 28.1013L18.2285 28.1574L18.246 28.2135L18.4336 28.2221C18.5383 28.2264 18.87 28.2351 19.1667 28.2437L19.7121 28.2566L19.8517 28.0409L19.9957 27.8252H20.179L20.1746 27.3765L20.1703 26.9278L19.9303 26.8243C19.1579 26.4878 18.7042 26.1038 18.534 25.6378C18.4991 25.5429 18.4991 25.5084 18.4903 25.077C18.486 24.6498 18.486 24.611 18.5165 24.5161C18.5776 24.3004 18.7478 24.1321 18.966 24.076C19.0401 24.0545 19.2365 24.0545 20.2663 24.0545L21.4793 24.0588L21.6145 24.1235C21.776 24.2012 21.8502 24.2572 21.9418 24.378C22.0465 24.5161 22.0771 24.624 22.0771 24.8871C22.0771 25.2625 22.0509 25.5861 22.0116 25.7155C21.9549 25.8924 21.8676 26.0606 21.7585 26.2116C21.5404 26.4878 21.1433 26.7639 20.7811 26.889L20.6764 26.9278L20.6808 27.3808L20.6851 27.8338L20.7811 27.8425L20.8771 27.8511L21.008 28.0452L21.1346 28.2394H21.7193C22.0422 28.2394 22.3258 28.2437 22.352 28.248C22.3956 28.2566 22.4043 28.2523 22.448 28.179L22.5003 28.1013H23.0021C23.3905 28.1013 23.5039 28.1056 23.5039 28.1186C23.4908 28.1143 23.4341 28.3257 23.3686 28.5673Z" fill="white"/>
<path d="M32.0606 23.6403C32.0518 23.4461 32.0344 23.1743 32.0213 23.0406C31.8337 21.0819 31.3275 19.4813 30.3676 17.7857C30.3283 17.721 30.2934 17.6563 30.2716 17.6045C30.2628 17.5916 30.2585 17.5786 30.2541 17.57C30.3894 17.1688 30.9435 15.4905 31.3842 13.5706C31.982 10.9648 32.3616 7.91886 31.201 7.00422C31.201 7.00422 29.1938 6.85753 26.5059 9.46339C25.7772 10.1839 25.1096 10.9648 24.5162 11.7974L24.3286 11.737C23.2465 11.3876 22.1251 11.1719 20.9949 11.0985C20.6546 11.0726 19.3848 11.0726 18.9703 11.0985C17.718 11.1805 16.7581 11.366 15.6672 11.7414C15.6236 11.7586 15.5843 11.7716 15.545 11.7845C14.9298 10.9561 14.2447 10.1796 13.4899 9.4677C10.6929 6.8489 8.61159 6.99991 8.61159 6.99991C7.3811 7.94474 7.79999 11.1287 8.43705 13.8209C8.85594 15.6027 9.37082 17.1688 9.56281 17.734C9.54972 17.7642 9.53227 17.7987 9.51481 17.8289C8.49814 19.8652 7.94835 21.8283 7.81744 23.9164C8.95629 23.7524 12.0936 23.5669 14.4455 26.0692C14.4455 26.0692 15.9988 22.0138 20.1877 22.0138C24.3766 22.0138 25.2711 26.0692 25.2711 26.0692C28.0462 23.8042 31.0352 23.8776 32.0824 23.9854C32.078 23.8991 32.0693 23.7697 32.0606 23.6403ZM10.3875 16.1075C10.3875 16.1075 8.75558 12.0736 9.17446 9.76971C9.24428 9.38142 9.37518 9.04058 9.58026 8.78172C9.58026 8.78172 11.4303 8.96293 14.4149 12.2418C14.4149 12.2418 13.8477 12.5136 13.0884 13.0917C13.0884 13.0917 13.0841 13.0961 13.0797 13.0961C12.255 13.7216 11.1991 14.7139 10.3875 16.1075ZM17.3122 22.1001C17.286 22.1518 17.1551 22.2079 17.0068 22.2295C16.8584 22.2511 16.4046 22.2381 16.1472 22.2079C15.2222 22.0871 14.2404 21.8067 13.5248 21.4615C13.1234 21.2674 12.8354 21.0732 12.6216 20.8618L12.4994 20.7367L12.4863 20.5728C12.4645 20.288 12.4688 19.8394 12.5037 19.6797C12.5256 19.546 12.5736 19.4165 12.639 19.3001C12.6739 19.2569 12.6739 19.2569 12.831 19.2569C13.023 19.2569 13.1844 19.2871 13.4462 19.3691C13.9829 19.533 14.7814 19.93 15.7545 20.5081C16.5574 20.9826 16.8584 21.2156 17.0897 21.5349C17.2468 21.7333 17.3515 22.0138 17.3122 22.1001ZM27.5924 20.672C27.5793 20.741 27.3743 20.9481 27.1692 21.0991C26.567 21.5349 25.4893 21.9404 24.394 22.1346C23.7701 22.2467 23.1461 22.264 22.9585 22.1734C22.8363 22.113 22.8189 22.0655 22.8625 21.9102C22.9541 21.5867 23.2508 21.2329 23.7134 20.9007C23.949 20.7324 24.9046 20.1586 25.3496 19.917C26.0827 19.5201 26.6761 19.2828 27.0775 19.2267C27.2041 19.2095 27.3568 19.2051 27.4048 19.2267C27.4833 19.2569 27.5706 19.4856 27.6055 19.7617C27.623 19.9084 27.6142 20.5555 27.5924 20.672ZM26.8681 13.0917L26.8594 13.0874C26.1263 12.5093 25.5765 12.2375 25.5765 12.2375C28.4607 8.95861 30.2454 8.77741 30.2454 8.77741C30.4417 9.04058 30.5683 9.3771 30.6381 9.76539C31.0439 12.0692 29.4687 16.1075 29.4687 16.1075C28.8098 14.9469 27.924 13.9201 26.8681 13.0917Z" fill="#FFA409"/>
<path d="M30.6424 9.76532C30.3021 9.72218 28.692 9.71355 26.8681 13.0917L26.8594 13.0874C26.1263 12.5092 25.5765 12.2374 25.5765 12.2374C28.4607 8.95854 30.2454 8.77734 30.2454 8.77734C30.4461 9.04052 30.5726 9.37703 30.6424 9.76532Z" fill="#FF9300"/>
<path d="M29.473 16.1073C28.8098 14.9425 27.9284 13.92 26.8681 13.0916C28.692 9.71351 30.2977 9.72214 30.6424 9.76528C31.0482 12.0735 29.473 16.1073 29.473 16.1073ZM30.7079 9.7782C30.6861 9.77389 30.6642 9.76957 30.6424 9.76526L30.7079 9.7782Z" fill="#FF8300"/>
<path d="M14.4149 12.2374C14.4149 12.2374 13.8477 12.5092 13.0884 13.0874C13.0884 13.0874 13.0841 13.0917 13.0797 13.0917C11.1904 9.70924 9.5279 9.72218 9.1701 9.76532C9.23992 9.37704 9.37082 9.0362 9.5759 8.77734C9.58027 8.77734 11.4303 8.95854 14.4149 12.2374Z" fill="#FF9300"/>
<path d="M13.0841 13.0916C12.255 13.7215 11.1991 14.7095 10.3875 16.1073C10.3875 16.1073 8.75558 12.0735 9.17447 9.76528C9.52791 9.72214 11.1947 9.71351 13.0841 13.0916ZM9.17447 9.76526C9.15265 9.76957 9.12647 9.77389 9.10465 9.7782L9.17447 9.76526Z" fill="#FF8300"/>
<path d="M25.0573 18.3465C25.0573 18.3465 23.661 18.4328 23.8355 17.3542C24.0101 16.2757 25.1009 16.1462 25.4063 16.1894C25.7118 16.2325 26.9335 16.6639 26.7154 17.5699C26.4972 18.476 26.1918 18.3034 26.0172 18.3465C25.8427 18.3897 25.0573 18.3465 25.0573 18.3465ZM14.7596 18.3465C14.7596 18.3465 13.3633 18.4328 13.5379 17.3542C13.7124 16.2757 14.8033 16.1462 15.1087 16.1894C15.4141 16.2325 16.6359 16.6639 16.4177 17.5699C16.1996 18.476 15.8941 18.3034 15.7196 18.3465C15.545 18.3897 14.7596 18.3465 14.7596 18.3465Z" fill="white"/>
<path d="M39.5 20C39.5 30.7696 30.7696 39.5 20 39.5C9.23045 39.5 0.5 30.7696 0.5 20C0.5 9.23045 9.23045 0.5 20 0.5C30.7696 0.5 39.5 9.23045 39.5 20Z" stroke="black" stroke-opacity="0.02"/>
</g>
<defs>
<clipPath id="clip0_1367_639">
<rect width="40" height="40" fill="white"/>
</clipPath>
</defs>
</svg>
